<?xml version="1.0" encoding="utf-8"?><svg xml:space="preserve" viewBox="0 0 100 100" y="0" x="0" xmlns="http://www.w3.org/2000/svg" id="圖層_1" version="1.1" width="200px" height="200px" xmlns:xlink="http://www.w3.org/1999/xlink" style="width:100%;height:100%;background-size:initial;background-repeat-y:initial;background-repeat-x:initial;background-position-y:initial;background-position-x:initial;background-origin:initial;background-image:initial;background-color:rgb(255, 255, 255);background-clip:initial;background-attachment:initial;animation-play-state:paused" ><g class="ldl-scale" style="transform-origin:50% 50%;transform:rotate(0deg) scale(0.8, 0.8);animation-play-state:paused" ><path fill="#a3a3a3" d="M79.5 13.5v-3h-4.2c-11.8 0-18.7 9.5-18.7 21.2v26.7c0 1.6 1.3 3 3 3h2V34.6c0-11.4 6.7-20.7 17.9-21.1z" style="fill:rgb(163, 163, 163);animation-play-state:paused" ></path>
<path fill="#666" d="M61.6 34.6v26.7h5.8V84c0 3.2 2.6 5.9 5.8 6h.2c3.3 0 6-2.7 6-6V13.5c-11.1.4-17.8 9.7-17.8 21.1z" style="fill:rgb(102, 102, 102);animation-play-state:paused" ></path>
<path fill="#333" d="M40.8 13.4v22.8h-3.5V13.4c0-1.9-1.5-3.4-3.3-3.4-1.8 0-3.3 1.5-3.3 3.4v22.8h-3.5V13.4c0-1.9-1.5-3.4-3.3-3.4-1.8 0-3.3 1.5-3.3 3.4v26.1c0 4.2 4.8 9.2 8.4 9.2v34.8c0 3.8 2.3 6 5.2 6 2.9 0 5.2-2.2 5.2-6V48.7c3.5 0 8.4-5.1 8.4-9.2V13.4c0-1.9-1.5-3.4-3.3-3.4-2.2 0-3.7 1.5-3.7 3.4z" style="fill:rgb(51, 51, 51);animation-play-state:paused" ></path>
<metadata xmlns:d="https://loading.io/stock/" style="animation-play-state:paused" ><d:name style="animation-play-state:paused" >folk</d:name>
<d:tags style="animation-play-state:paused" >knife,dish,food,cuisine,gourmet,delicacy,tableware,eat,lunch,dinner,folk,web application</d:tags>
<d:license style="animation-play-state:paused" >by</d:license>
<d:slug style="animation-play-state:paused" >1ymru0</d:slug></metadata></g><!-- generated by https://loading.io/ --></svg>